<mxfile host="app.diagrams.net" agent="Mozilla/5.0 (Windows NT 10.0; Win64; x64) AppleWebKit/537.36 (KHTML, like Gecko) Chrome/131.0.0.0 Safari/537.36" version="25.0.3">
  <diagram id="R2lEEEUBdFMjLlhIrx00" name="Page-1">
    <mxGraphModel dx="913" dy="484" grid="1" gridSize="10" guides="1" tooltips="1" connect="1" arrows="1" fold="1" page="1" pageScale="1" pageWidth="850" pageHeight="1100" math="0" shadow="0" extFonts="Permanent Marker^https://fonts.googleapis.com/css?family=Permanent+Marker">
      <root>
        <mxCell id="0" />
        <mxCell id="1" parent="0" />
        <mxCell id="p7NFYzMcLs3akUocbzwU-1" value="payment_transaction" style="rounded=0;whiteSpace=wrap;html=1;" vertex="1" parent="1">
          <mxGeometry x="380" y="220" width="120" height="60" as="geometry" />
        </mxCell>
        <mxCell id="p7NFYzMcLs3akUocbzwU-2" value="transaction_id&amp;nbsp;" style="ellipse;whiteSpace=wrap;html=1;" vertex="1" parent="1">
          <mxGeometry x="210" y="130" width="110" height="80" as="geometry" />
        </mxCell>
        <mxCell id="p7NFYzMcLs3akUocbzwU-3" value="uid" style="ellipse;whiteSpace=wrap;html=1;" vertex="1" parent="1">
          <mxGeometry x="280" y="50" width="120" height="80" as="geometry" />
        </mxCell>
        <mxCell id="p7NFYzMcLs3akUocbzwU-4" value="transaction_date&amp;nbsp;" style="ellipse;whiteSpace=wrap;html=1;" vertex="1" parent="1">
          <mxGeometry x="380" width="120" height="80" as="geometry" />
        </mxCell>
        <mxCell id="p7NFYzMcLs3akUocbzwU-5" value="amt" style="ellipse;whiteSpace=wrap;html=1;" vertex="1" parent="1">
          <mxGeometry x="480" y="60" width="120" height="80" as="geometry" />
        </mxCell>
        <mxCell id="p7NFYzMcLs3akUocbzwU-6" value="utr_no" style="ellipse;whiteSpace=wrap;html=1;" vertex="1" parent="1">
          <mxGeometry x="560" y="130" width="120" height="80" as="geometry" />
        </mxCell>
        <mxCell id="p7NFYzMcLs3akUocbzwU-7" value="" style="endArrow=none;html=1;rounded=0;entryX=0;entryY=0.5;entryDx=0;entryDy=0;" edge="1" parent="1" source="p7NFYzMcLs3akUocbzwU-2" target="p7NFYzMcLs3akUocbzwU-1">
          <mxGeometry width="50" height="50" relative="1" as="geometry">
            <mxPoint x="300" y="280" as="sourcePoint" />
            <mxPoint x="350" y="230" as="targetPoint" />
          </mxGeometry>
        </mxCell>
        <mxCell id="p7NFYzMcLs3akUocbzwU-11" value="" style="endArrow=none;html=1;rounded=0;entryX=0.58;entryY=0.973;entryDx=0;entryDy=0;entryPerimeter=0;exitX=0.083;exitY=0;exitDx=0;exitDy=0;exitPerimeter=0;" edge="1" parent="1" source="p7NFYzMcLs3akUocbzwU-1" target="p7NFYzMcLs3akUocbzwU-3">
          <mxGeometry width="50" height="50" relative="1" as="geometry">
            <mxPoint x="300" y="280" as="sourcePoint" />
            <mxPoint x="350" y="230" as="targetPoint" />
          </mxGeometry>
        </mxCell>
        <mxCell id="p7NFYzMcLs3akUocbzwU-12" value="" style="endArrow=none;html=1;rounded=0;" edge="1" parent="1" target="p7NFYzMcLs3akUocbzwU-4">
          <mxGeometry width="50" height="50" relative="1" as="geometry">
            <mxPoint x="440" y="220" as="sourcePoint" />
            <mxPoint x="360" y="138" as="targetPoint" />
          </mxGeometry>
        </mxCell>
        <mxCell id="p7NFYzMcLs3akUocbzwU-13" value="" style="endArrow=none;html=1;rounded=0;exitX=0.75;exitY=0;exitDx=0;exitDy=0;" edge="1" parent="1" source="p7NFYzMcLs3akUocbzwU-1" target="p7NFYzMcLs3akUocbzwU-5">
          <mxGeometry width="50" height="50" relative="1" as="geometry">
            <mxPoint x="480" y="210" as="sourcePoint" />
            <mxPoint x="370" y="148" as="targetPoint" />
          </mxGeometry>
        </mxCell>
        <mxCell id="p7NFYzMcLs3akUocbzwU-14" value="" style="endArrow=none;html=1;rounded=0;entryX=0.131;entryY=0.782;entryDx=0;entryDy=0;entryPerimeter=0;exitX=1.016;exitY=0.145;exitDx=0;exitDy=0;exitPerimeter=0;" edge="1" parent="1" source="p7NFYzMcLs3akUocbzwU-1" target="p7NFYzMcLs3akUocbzwU-6">
          <mxGeometry width="50" height="50" relative="1" as="geometry">
            <mxPoint x="420" y="250" as="sourcePoint" />
            <mxPoint x="380" y="158" as="targetPoint" />
          </mxGeometry>
        </mxCell>
      </root>
    </mxGraphModel>
  </diagram>
</mxfile>
